<svg width="101" height="111" viewBox="0 0 101 111" fill="none" xmlns="http://www.w3.org/2000/svg">
<path fill-rule="evenodd" clip-rule="evenodd" d="M58.6987 2.42734C53.7483 -0.430781 47.6491 -0.430777 42.6987 2.42735L8.69873 22.0573C3.74831 24.9154 0.69873 30.1974 0.69873 35.9137V75.1735C0.69873 80.8897 3.74832 86.1718 8.69874 89.0299L42.6987 108.66C47.6491 111.518 53.7483 111.518 58.6987 108.66L92.6987 89.0299C97.6492 86.1718 100.699 80.8897 100.699 75.1735V35.9137C100.699 30.1974 97.6491 24.9154 92.6987 22.0573L58.6987 2.42734ZM52 11.1547C50.7624 10.4402 49.2376 10.4402 48 11.1547L13.0288 31.3453C11.7912 32.0598 11.0288 33.3803 11.0288 34.8094V75.1906C11.0288 76.6197 11.7912 77.9402 13.0288 78.6547L48 98.8453C49.2376 99.5598 50.7624 99.5598 52 98.8453L86.9711 78.6547C88.2087 77.9402 88.9711 76.6197 88.9711 75.1906V34.8094C88.9711 33.3803 88.2087 32.0598 86.9711 31.3453L52 11.1547Z" fill="#2E8555"/>
<path d="M25.7276 55.976V39.272H26.6636L38.3276 50.624V39.272H39.2156V55.976H25.7276ZM43.0372 45.8C43.0372 44.552 43.3492 43.392 43.9732 42.32C44.5972 41.248 45.4372 40.4 46.4932 39.776C47.5652 39.152 48.7332 38.84 49.9972 38.84C51.2612 38.84 52.4212 39.152 53.4772 39.776C54.5492 40.4 55.3972 41.248 56.0212 42.32C56.6452 43.392 56.9572 44.552 56.9572 45.8V49.496C56.9572 50.744 56.6452 51.904 56.0212 52.976C55.3972 54.048 54.5492 54.896 53.4772 55.52C52.4212 56.144 51.2612 56.456 49.9972 56.456C48.7332 56.456 47.5652 56.144 46.4932 55.52C45.4372 54.896 44.5972 54.048 43.9732 52.976C43.3492 51.904 43.0372 50.744 43.0372 49.496V45.8ZM47.4052 49.496C47.4052 50.264 47.6452 50.92 48.1252 51.464C48.6052 52.008 49.2292 52.28 49.9972 52.28C50.7492 52.28 51.3652 52.008 51.8452 51.464C52.3252 50.92 52.5652 50.264 52.5652 49.496V45.776C52.5652 44.992 52.3252 44.336 51.8452 43.808C51.3652 43.28 50.7492 43.016 49.9972 43.016C49.2292 43.016 48.6052 43.28 48.1252 43.808C47.6452 44.336 47.4052 44.992 47.4052 45.776V49.496ZM59.8908 39.272H75.6348L67.7628 56.336L59.8908 39.272ZM67.7628 54.224L74.2668 40.16H61.2828L67.7628 54.224ZM40.1036 74H24.3596L32.2316 56.936L40.1036 74ZM25.7516 73.112H38.7116L32.2316 59.048L25.7516 73.112ZM49.5652 74V61.52H43.2532V57.296H56.7412V61.52H50.4292V74H49.5652ZM60.8028 63.8C60.8028 62.552 61.1148 61.392 61.7388 60.32C62.3628 59.248 63.2028 58.4 64.2588 57.776C65.3308 57.152 66.4988 56.84 67.7628 56.84C69.0268 56.84 70.1868 57.152 71.2428 57.776C72.3148 58.4 73.1628 59.248 73.7868 60.32C74.4108 61.392 74.7228 62.552 74.7228 63.8V67.496C74.7228 68.744 74.4108 69.904 73.7868 70.976C73.1628 72.048 72.3148 72.896 71.2428 73.52C70.1868 74.144 69.0268 74.456 67.7628 74.456C66.4988 74.456 65.3308 74.144 64.2588 73.52C63.2028 72.896 62.3628 72.048 61.7388 70.976C61.1148 69.904 60.8028 68.744 60.8028 67.496V63.8ZM65.1708 67.496C65.1708 68.264 65.4108 68.92 65.8908 69.464C66.3708 70.008 66.9948 70.28 67.7628 70.28C68.5148 70.28 69.1308 70.008 69.6108 69.464C70.0908 68.92 70.3308 68.264 70.3308 67.496V63.776C70.3308 62.992 70.0908 62.336 69.6108 61.808C69.1308 61.28 68.5148 61.016 67.7628 61.016C66.9948 61.016 66.3708 61.28 65.8908 61.808C65.4108 62.336 65.1708 62.992 65.1708 63.776V67.496Z" fill="#2E8555"/>
</svg>
